<svg width="942" height="377" viewBox="0 0 942 377" fill="none" xmlns="http://www.w3.org/2000/svg">
<g opacity="0.59" filter="url(#filter0_d_106_88)">
<rect y="-15" width="942" height="392" fill="url(#paint0_linear_106_88)"/>
</g>
<g filter="url(#filter1_d_106_88)">
<circle opacity="0.23" cx="808" cy="-4" r="86" fill="white" fill-opacity="0.49"/>
<circle opacity="0.28" cx="807.918" cy="-4.08189" r="67.5714" fill="white" fill-opacity="0.3"/>
<circle cx="808.205" cy="-3.79522" r="46.0714" fill="#FCE588"/>
</g>
<path fill-rule="evenodd" clip-rule="evenodd" d="M904 32C902.85 32 901.917 32.9333 901.917 34.0833V38.25C901.917 39.4 902.85 40.3333 904 40.3333C905.15 40.3333 906.083 39.4 906.083 38.25V34.0833C906.083 32.9333 905.15 32 904 32ZM892.215 42.2688L889.269 39.3229C888.456 38.5094 887.135 38.5094 886.323 39.3229C885.509 40.1365 885.509 41.4552 886.323 42.2688L889.269 45.2146C889.675 45.6219 890.208 45.825 890.742 45.825C891.275 45.825 891.808 45.6219 892.215 45.2146C893.028 44.4011 893.028 43.0823 892.215 42.2688ZM885.25 54.9167H881.083C879.933 54.9167 879 55.85 879 57C879 58.15 879.933 59.0833 881.083 59.0833H885.25C886.4 59.0833 887.333 58.15 887.333 57C887.333 55.85 886.4 54.9167 885.25 54.9167ZM886.323 71.7313L889.269 68.7854C890.081 67.9719 891.402 67.9719 892.215 68.7854C893.028 69.599 893.028 70.9177 892.215 71.7313L889.269 74.6771C888.863 75.0844 888.329 75.2875 887.796 75.2875C887.263 75.2875 886.729 75.0844 886.323 74.6771C885.509 73.8635 885.509 72.5448 886.323 71.7313ZM904 73.6667C902.85 73.6667 901.917 74.6 901.917 75.75V79.9167C901.917 81.0667 902.85 82 904 82C905.15 82 906.083 81.0667 906.083 79.9167V75.75C906.083 74.6 905.15 73.6667 904 73.6667ZM918.731 68.7854L921.677 71.7313C922.491 72.5448 922.491 73.8635 921.677 74.6771C921.271 75.0844 920.738 75.2875 920.204 75.2875C919.671 75.2875 919.138 75.0844 918.731 74.6771L915.785 71.7313C914.972 70.9177 914.972 69.599 915.785 68.7854C916.598 67.9719 917.919 67.9719 918.731 68.7854ZM926.917 54.9167H922.75C921.6 54.9167 920.667 55.85 920.667 57C920.667 58.15 921.6 59.0833 922.75 59.0833H926.917C928.067 59.0833 929 58.15 929 57C929 55.85 928.067 54.9167 926.917 54.9167ZM918.731 39.3229C919.544 38.5094 920.865 38.5094 921.677 39.3229C922.491 40.1365 922.491 41.4552 921.677 42.2688L918.731 45.2146C918.325 45.6219 917.792 45.825 917.258 45.825C916.725 45.825 916.192 45.6219 915.785 45.2146C914.972 44.4011 914.972 43.0823 915.785 42.2688L918.731 39.3229ZM890.458 57C890.458 49.5333 896.533 43.4583 904 43.4583C911.467 43.4583 917.542 49.5333 917.542 57C917.542 64.4667 911.467 70.5417 904 70.5417C896.533 70.5417 890.458 64.4667 890.458 57ZM894.625 57C894.625 62.1687 898.831 66.375 904 66.375C909.169 66.375 913.375 62.1687 913.375 57C913.375 51.8312 909.169 47.625 904 47.625C898.831 47.625 894.625 51.8312 894.625 57Z" fill="white"/>
<defs>
<filter id="filter0_d_106_88" x="-4" y="-15" width="950" height="400" filterUnits="userSpaceOnUse" color-interpolation-filters="sRGB">
<feFlood flood-opacity="0" result="BackgroundImageFix"/>
<feColorMatrix in="SourceAlpha" type="matrix" values="0 0 0 0 0 0 0 0 0 0 0 0 0 0 0 0 0 0 127 0" result="hardAlpha"/>
<feOffset dy="4"/>
<feGaussianBlur stdDeviation="2"/>
<feComposite in2="hardAlpha" operator="out"/>
<feColorMatrix type="matrix" values="0 0 0 0 0 0 0 0 0 0 0 0 0 0 0 0 0 0 0.25 0"/>
<feBlend mode="normal" in2="BackgroundImageFix" result="effect1_dropShadow_106_88"/>
<feBlend mode="normal" in="SourceGraphic" in2="effect1_dropShadow_106_88" result="shape"/>
</filter>
<filter id="filter1_d_106_88" x="718" y="-90" width="180" height="180" filterUnits="userSpaceOnUse" color-interpolation-filters="sRGB">
<feFlood flood-opacity="0" result="BackgroundImageFix"/>
<feColorMatrix in="SourceAlpha" type="matrix" values="0 0 0 0 0 0 0 0 0 0 0 0 0 0 0 0 0 0 127 0" result="hardAlpha"/>
<feOffset dy="4"/>
<feGaussianBlur stdDeviation="2"/>
<feComposite in2="hardAlpha" operator="out"/>
<feColorMatrix type="matrix" values="0 0 0 0 0 0 0 0 0 0 0 0 0 0 0 0 0 0 0.25 0"/>
<feBlend mode="normal" in2="BackgroundImageFix" result="effect1_dropShadow_106_88"/>
<feBlend mode="normal" in="SourceGraphic" in2="effect1_dropShadow_106_88" result="shape"/>
</filter>
<linearGradient id="paint0_linear_106_88" x1="0" y1="181" x2="942" y2="181" gradientUnits="userSpaceOnUse">
<stop stop-color="#00D2FF"/>
<stop offset="1" stop-color="#3A7BD5"/>
</linearGradient>
</defs>
</svg>
