<svg width="942" height="418" viewBox="0 0 942 418" fill="none" xmlns="http://www.w3.org/2000/svg">
<path d="M35.125 112C35.3594 107.664 36.25 103.891 37.7969 100.68C39.3672 97.4688 42.4141 94.5508 46.9375 91.9258L53.6875 88.0234C56.7109 86.2656 58.832 84.7656 60.0508 83.5234C61.9727 81.5781 62.9336 79.3516 62.9336 76.8438C62.9336 73.9141 62.0547 71.5938 60.2969 69.8828C58.5391 68.1484 56.1953 67.2812 53.2656 67.2812C48.9297 67.2812 45.9297 68.9219 44.2656 72.2031C43.375 73.9609 42.8828 76.3984 42.7891 79.5156H36.3555C36.4258 75.1328 37.2344 71.5586 38.7812 68.793C41.5234 63.918 46.3633 61.4805 53.3008 61.4805C59.0664 61.4805 63.2734 63.0391 65.9219 66.1562C68.5938 69.2734 69.9297 72.7422 69.9297 76.5625C69.9297 80.5938 68.5117 84.0391 65.6758 86.8984C64.0352 88.5625 61.0938 90.5781 56.8516 92.9453L52.0352 95.6172C49.7383 96.8828 47.9336 98.0898 46.6211 99.2383C44.2773 101.277 42.8008 103.539 42.1914 106.023H69.6836V112H35.125ZM112.045 62.5V68.0195C110.428 69.5898 108.272 72.3203 105.577 76.2109C102.905 80.1016 100.538 84.2969 98.4752 88.7969C96.4361 93.1797 94.8892 97.1758 93.8345 100.785C93.1548 103.105 92.2759 106.844 91.1978 112H84.2017C85.7955 102.391 89.3111 92.8281 94.7486 83.3125C97.9595 77.7344 101.335 72.918 104.874 68.8633H77.0298V62.5H112.045Z" fill="white"/>
<circle cx="126.25" cy="66.75" r="5.23125" stroke="white" stroke-width="3.0375"/>
<circle opacity="0.8" cx="216.5" cy="84.5" r="6.5" fill="#2D344D" fill-opacity="0.6"/>
<path d="M149.374 79.958V81.1543H145.99V90H144.609V81.1543H141.226V79.958H149.374ZM151.452 82.6787V87.5391C151.452 87.9128 151.511 88.2181 151.63 88.4551C151.848 88.8926 152.256 89.1113 152.853 89.1113C153.71 89.1113 154.293 88.7285 154.603 87.9629C154.772 87.5527 154.856 86.9899 154.856 86.2744V82.6787H156.087V90H154.925L154.938 88.9199C154.779 89.1979 154.58 89.4326 154.343 89.624C153.874 90.0068 153.304 90.1982 152.634 90.1982C151.591 90.1982 150.88 89.8496 150.502 89.1523C150.297 88.7786 150.194 88.2796 150.194 87.6553V82.6787H151.452ZM161.343 82.5146C161.863 82.5146 162.366 82.6377 162.854 82.8838C163.342 83.1253 163.713 83.4398 163.968 83.8271C164.214 84.1963 164.378 84.627 164.46 85.1191C164.533 85.4564 164.57 85.9941 164.57 86.7324H159.204C159.226 87.4753 159.402 88.0723 159.73 88.5234C160.058 88.9701 160.566 89.1934 161.254 89.1934C161.897 89.1934 162.41 88.9814 162.792 88.5576C163.011 88.3115 163.166 88.0267 163.257 87.7031H164.467C164.435 87.972 164.328 88.2728 164.146 88.6055C163.968 88.9336 163.768 89.2025 163.544 89.4121C163.171 89.7767 162.708 90.0228 162.157 90.1504C161.86 90.2233 161.525 90.2598 161.152 90.2598C160.24 90.2598 159.468 89.9294 158.834 89.2686C158.201 88.6032 157.884 87.6735 157.884 86.4795C157.884 85.3037 158.203 84.349 158.841 83.6152C159.479 82.8815 160.313 82.5146 161.343 82.5146ZM163.305 85.7549C163.255 85.2217 163.139 84.7956 162.956 84.4766C162.619 83.8841 162.056 83.5879 161.268 83.5879C160.703 83.5879 160.229 83.793 159.846 84.2031C159.463 84.6087 159.261 85.126 159.238 85.7549H163.305ZM167.099 87.7031C167.135 88.1133 167.238 88.4277 167.406 88.6465C167.716 89.043 168.254 89.2412 169.02 89.2412C169.475 89.2412 169.876 89.1432 170.223 88.9473C170.569 88.7467 170.742 88.4391 170.742 88.0244C170.742 87.71 170.603 87.4707 170.325 87.3066C170.148 87.2064 169.797 87.0902 169.273 86.958L168.295 86.7119C167.671 86.557 167.21 86.3838 166.914 86.1924C166.386 85.8597 166.121 85.3994 166.121 84.8115C166.121 84.1188 166.37 83.5583 166.866 83.1299C167.368 82.7015 168.04 82.4873 168.883 82.4873C169.986 82.4873 170.781 82.8109 171.269 83.458C171.574 83.8682 171.722 84.3102 171.713 84.7842H170.551C170.528 84.5062 170.43 84.2533 170.257 84.0254C169.974 83.7018 169.485 83.54 168.787 83.54C168.322 83.54 167.969 83.6289 167.728 83.8066C167.491 83.9844 167.372 84.2191 167.372 84.5107C167.372 84.8298 167.529 85.085 167.844 85.2764C168.026 85.3903 168.295 85.4906 168.651 85.5771L169.464 85.7754C170.348 85.9896 170.941 86.1969 171.241 86.3975C171.72 86.7119 171.959 87.2064 171.959 87.8809C171.959 88.5326 171.711 89.0954 171.214 89.5693C170.722 90.0433 169.97 90.2803 168.958 90.2803C167.869 90.2803 167.097 90.0342 166.641 89.542C166.19 89.0452 165.948 88.4323 165.916 87.7031H167.099ZM174.427 86.4248C174.427 87.2087 174.593 87.8649 174.926 88.3936C175.258 88.9222 175.792 89.1865 176.525 89.1865C177.095 89.1865 177.562 88.9427 177.927 88.4551C178.296 87.9629 178.48 87.2588 178.48 86.3428C178.48 85.4176 178.291 84.734 177.913 84.292C177.535 83.8454 177.068 83.6221 176.512 83.6221C175.892 83.6221 175.388 83.859 175.001 84.333C174.618 84.807 174.427 85.5042 174.427 86.4248ZM176.279 82.5488C176.84 82.5488 177.309 82.6673 177.687 82.9043C177.906 83.041 178.155 83.2803 178.433 83.6221V79.9238H179.615V90H178.508V88.9814C178.221 89.4326 177.881 89.7585 177.489 89.959C177.097 90.1595 176.648 90.2598 176.142 90.2598C175.327 90.2598 174.62 89.918 174.023 89.2344C173.426 88.5462 173.128 87.6325 173.128 86.4932C173.128 85.4268 173.399 84.5039 173.941 83.7246C174.488 82.9408 175.267 82.5488 176.279 82.5488ZM182.664 88.0518C182.664 88.4072 182.794 88.6875 183.053 88.8926C183.313 89.0977 183.621 89.2002 183.976 89.2002C184.409 89.2002 184.828 89.0999 185.234 88.8994C185.918 88.5667 186.259 88.0221 186.259 87.2656V86.2744C186.109 86.3701 185.915 86.4499 185.678 86.5137C185.441 86.5775 185.209 86.623 184.981 86.6504L184.236 86.7461C183.789 86.8053 183.454 86.8988 183.231 87.0264C182.853 87.2406 182.664 87.5824 182.664 88.0518ZM185.644 85.5635C185.927 85.527 186.116 85.4085 186.212 85.208C186.266 85.0986 186.294 84.9414 186.294 84.7363C186.294 84.3171 186.143 84.014 185.842 83.8271C185.546 83.6357 185.12 83.54 184.564 83.54C183.921 83.54 183.466 83.7132 183.197 84.0596C183.046 84.251 182.949 84.5358 182.903 84.9141H181.754C181.777 84.0117 182.069 83.3851 182.629 83.0342C183.195 82.6787 183.849 82.501 184.591 82.501C185.453 82.501 186.152 82.665 186.69 82.9932C187.223 83.3213 187.49 83.8317 187.49 84.5244V88.7422C187.49 88.8698 187.515 88.9723 187.565 89.0498C187.62 89.1273 187.731 89.166 187.9 89.166C187.955 89.166 188.016 89.1637 188.085 89.1592C188.153 89.1501 188.226 89.1387 188.303 89.125V90.0342C188.112 90.0889 187.966 90.123 187.866 90.1367C187.766 90.1504 187.629 90.1572 187.456 90.1572C187.032 90.1572 186.724 90.0068 186.533 89.7061C186.433 89.5465 186.362 89.321 186.321 89.0293C186.07 89.3574 185.71 89.6423 185.241 89.8838C184.771 90.1253 184.254 90.2461 183.689 90.2461C183.01 90.2461 182.454 90.041 182.021 89.6309C181.593 89.2161 181.379 88.6989 181.379 88.0791C181.379 87.4001 181.59 86.8737 182.014 86.5C182.438 86.1263 182.994 85.8962 183.682 85.8096L185.644 85.5635ZM194.367 82.6787H195.727C195.554 83.1481 195.169 84.2191 194.572 85.8916C194.125 87.1494 193.751 88.1748 193.451 88.9678C192.74 90.8363 192.238 91.9756 191.947 92.3857C191.655 92.7959 191.154 93.001 190.443 93.001C190.27 93.001 190.135 92.9941 190.039 92.9805C189.948 92.9668 189.834 92.9417 189.698 92.9053V91.7842C189.912 91.8434 190.067 91.8799 190.162 91.8936C190.258 91.9072 190.342 91.9141 190.415 91.9141C190.643 91.9141 190.81 91.8753 190.914 91.7979C191.024 91.7249 191.115 91.6338 191.188 91.5244C191.211 91.488 191.293 91.3011 191.434 90.9639C191.575 90.6266 191.678 90.376 191.742 90.2119L189.034 82.6787H190.429L192.391 88.6396L194.367 82.6787ZM196.294 91.4287C196.608 91.374 196.829 91.153 196.957 90.7656C197.025 90.5605 197.06 90.3623 197.06 90.1709C197.06 90.139 197.057 90.1094 197.053 90.082C197.053 90.0592 197.048 90.0319 197.039 90H196.294V88.5098H197.757V89.8906C197.757 90.4329 197.647 90.9092 197.429 91.3193C197.21 91.7295 196.832 91.9824 196.294 92.0781V91.4287ZM203.922 90C203.968 89.1569 204.141 88.4232 204.442 87.7988C204.747 87.1745 205.34 86.6071 206.219 86.0967L207.532 85.3379C208.12 84.9961 208.532 84.7044 208.769 84.4629C209.143 84.0846 209.33 83.6517 209.33 83.1641C209.33 82.5944 209.159 82.1432 208.817 81.8105C208.475 81.4733 208.019 81.3047 207.45 81.3047C206.607 81.3047 206.023 81.6237 205.7 82.2617C205.527 82.6035 205.431 83.0775 205.413 83.6836H204.162C204.175 82.8314 204.333 82.1364 204.633 81.5986C205.166 80.6507 206.108 80.1768 207.457 80.1768C208.578 80.1768 209.396 80.4798 209.911 81.0859C210.43 81.6921 210.69 82.3665 210.69 83.1094C210.69 83.8932 210.414 84.5632 209.863 85.1191C209.544 85.4427 208.972 85.8346 208.147 86.2949L207.21 86.8145C206.764 87.0605 206.413 87.2952 206.158 87.5186C205.702 87.915 205.415 88.3548 205.296 88.8379H210.642V90H203.922ZM215.195 90.2666C214.037 90.2666 213.196 89.9499 212.672 89.3164C212.153 88.6784 211.893 87.9036 211.893 86.9922H213.178C213.233 87.6257 213.351 88.0859 213.533 88.373C213.852 88.888 214.429 89.1455 215.263 89.1455C215.91 89.1455 216.43 88.9723 216.821 88.626C217.213 88.2796 217.409 87.833 217.409 87.2861C217.409 86.6117 217.202 86.14 216.787 85.8711C216.377 85.6022 215.805 85.4678 215.071 85.4678C214.989 85.4678 214.905 85.4701 214.819 85.4746C214.737 85.4746 214.652 85.4769 214.566 85.4814V84.3945C214.693 84.4082 214.8 84.4173 214.887 84.4219C214.974 84.4264 215.067 84.4287 215.167 84.4287C215.627 84.4287 216.006 84.3558 216.302 84.21C216.821 83.9548 217.081 83.499 217.081 82.8428C217.081 82.3551 216.908 81.9792 216.562 81.7148C216.215 81.4505 215.812 81.3184 215.352 81.3184C214.531 81.3184 213.964 81.5918 213.65 82.1387C213.476 82.4395 213.378 82.8678 213.356 83.4238H212.139C212.139 82.6947 212.285 82.0749 212.576 81.5645C213.078 80.653 213.96 80.1973 215.222 80.1973C216.22 80.1973 216.992 80.4206 217.539 80.8672C218.086 81.3092 218.36 81.9518 218.36 82.7949C218.36 83.3965 218.198 83.8841 217.874 84.2578C217.674 84.4902 217.414 84.6725 217.095 84.8047C217.61 84.946 218.011 85.2194 218.298 85.625C218.59 86.026 218.736 86.5182 218.736 87.1016C218.736 88.0358 218.428 88.7969 217.813 89.3848C217.197 89.9727 216.325 90.2666 215.195 90.2666ZM228.729 88.8379C229.189 88.8379 229.568 88.79 229.864 88.6943C230.393 88.5166 230.825 88.1748 231.163 87.6689C231.432 87.2633 231.625 86.7438 231.744 86.1104C231.812 85.7321 231.846 85.3812 231.846 85.0576C231.846 83.8135 231.598 82.8473 231.101 82.1592C230.609 81.471 229.814 81.127 228.715 81.127H226.302V88.8379H228.729ZM224.935 79.958H229.003C230.383 79.958 231.454 80.4479 232.215 81.4277C232.895 82.3118 233.234 83.4443 233.234 84.8252C233.234 85.8916 233.034 86.8555 232.632 87.7168C231.926 89.2389 230.712 90 228.989 90H224.935V79.958ZM238.156 82.5146C238.675 82.5146 239.179 82.6377 239.666 82.8838C240.154 83.1253 240.525 83.4398 240.781 83.8271C241.027 84.1963 241.191 84.627 241.273 85.1191C241.346 85.4564 241.382 85.9941 241.382 86.7324H236.016C236.039 87.4753 236.214 88.0723 236.542 88.5234C236.87 88.9701 237.379 89.1934 238.067 89.1934C238.709 89.1934 239.222 88.9814 239.605 88.5576C239.824 88.3115 239.979 88.0267 240.07 87.7031H241.28C241.248 87.972 241.141 88.2728 240.958 88.6055C240.781 88.9336 240.58 89.2025 240.357 89.4121C239.983 89.7767 239.521 90.0228 238.969 90.1504C238.673 90.2233 238.338 90.2598 237.964 90.2598C237.053 90.2598 236.28 89.9294 235.647 89.2686C235.013 88.6032 234.697 87.6735 234.697 86.4795C234.697 85.3037 235.016 84.349 235.654 83.6152C236.292 82.8815 237.126 82.5146 238.156 82.5146ZM240.118 85.7549C240.067 85.2217 239.951 84.7956 239.769 84.4766C239.432 83.8841 238.869 83.5879 238.08 83.5879C237.515 83.5879 237.041 83.793 236.659 84.2031C236.276 84.6087 236.073 85.126 236.05 85.7549H240.118ZM246.003 82.4668C246.828 82.4668 247.498 82.6673 248.013 83.0684C248.532 83.4694 248.844 84.1598 248.949 85.1396H247.753C247.68 84.6885 247.514 84.3148 247.254 84.0186C246.994 83.7178 246.577 83.5674 246.003 83.5674C245.219 83.5674 244.659 83.9502 244.321 84.7158C244.103 85.2126 243.993 85.8255 243.993 86.5547C243.993 87.2884 244.148 87.9059 244.458 88.4072C244.768 88.9085 245.256 89.1592 245.921 89.1592C246.431 89.1592 246.835 89.0042 247.131 88.6943C247.432 88.3799 247.639 87.9515 247.753 87.4092H248.949C248.813 88.3799 248.471 89.0908 247.924 89.542C247.377 89.9886 246.677 90.2119 245.825 90.2119C244.868 90.2119 244.105 89.8633 243.535 89.166C242.966 88.4642 242.681 87.5892 242.681 86.541C242.681 85.2559 242.993 84.2555 243.617 83.54C244.242 82.8245 245.037 82.4668 246.003 82.4668ZM253.509 82.5146C254.028 82.5146 254.532 82.6377 255.019 82.8838C255.507 83.1253 255.878 83.4398 256.134 83.8271C256.38 84.1963 256.544 84.627 256.626 85.1191C256.699 85.4564 256.735 85.9941 256.735 86.7324H251.369C251.392 87.4753 251.567 88.0723 251.895 88.5234C252.223 88.9701 252.732 89.1934 253.42 89.1934C254.062 89.1934 254.575 88.9814 254.958 88.5576C255.177 88.3115 255.332 88.0267 255.423 87.7031H256.633C256.601 87.972 256.494 88.2728 256.311 88.6055C256.134 88.9336 255.933 89.2025 255.71 89.4121C255.336 89.7767 254.873 90.0228 254.322 90.1504C254.026 90.2233 253.691 90.2598 253.317 90.2598C252.406 90.2598 251.633 89.9294 251 89.2686C250.366 88.6032 250.05 87.6735 250.05 86.4795C250.05 85.3037 250.369 84.349 251.007 83.6152C251.645 82.8815 252.479 82.5146 253.509 82.5146ZM255.471 85.7549C255.42 85.2217 255.304 84.7956 255.122 84.4766C254.785 83.8841 254.222 83.5879 253.433 83.5879C252.868 83.5879 252.394 83.793 252.012 84.2031C251.629 84.6087 251.426 85.126 251.403 85.7549H255.471ZM258.533 82.6787H259.75V83.7178C260.041 83.3577 260.306 83.0957 260.543 82.9316C260.948 82.6536 261.408 82.5146 261.923 82.5146C262.507 82.5146 262.976 82.6582 263.332 82.9453C263.532 83.1094 263.714 83.3509 263.878 83.6699C264.152 83.278 264.473 82.9886 264.842 82.8018C265.211 82.6104 265.626 82.5146 266.086 82.5146C267.071 82.5146 267.741 82.8701 268.096 83.5811C268.288 83.9639 268.383 84.4788 268.383 85.126V90H267.105V84.9141C267.105 84.4264 266.982 84.0915 266.736 83.9092C266.494 83.7269 266.198 83.6357 265.847 83.6357C265.364 83.6357 264.947 83.7975 264.596 84.1211C264.25 84.4447 264.077 84.9847 264.077 85.7412V90H262.826V85.2217C262.826 84.7249 262.766 84.3626 262.648 84.1348C262.461 83.793 262.112 83.6221 261.602 83.6221C261.137 83.6221 260.713 83.8021 260.331 84.1621C259.952 84.5221 259.763 85.1738 259.763 86.1172V90H258.533V82.6787ZM270.379 79.9238H271.575V83.5674C271.844 83.2165 272.166 82.9499 272.539 82.7676C272.913 82.5807 273.319 82.4873 273.756 82.4873C274.668 82.4873 275.406 82.8018 275.971 83.4307C276.541 84.055 276.825 84.9779 276.825 86.1992C276.825 87.3568 276.545 88.3184 275.985 89.084C275.424 89.8496 274.647 90.2324 273.654 90.2324C273.098 90.2324 272.628 90.098 272.245 89.8291C272.017 89.6696 271.774 89.4144 271.514 89.0635V90H270.379V79.9238ZM273.578 89.1455C274.244 89.1455 274.74 88.8812 275.069 88.3525C275.401 87.8239 275.568 87.1266 275.568 86.2607C275.568 85.4906 275.401 84.8525 275.069 84.3467C274.74 83.8408 274.255 83.5879 273.613 83.5879C273.052 83.5879 272.56 83.7952 272.136 84.21C271.717 84.6247 271.507 85.3083 271.507 86.2607C271.507 86.9489 271.594 87.5072 271.767 87.9355C272.09 88.7422 272.694 89.1455 273.578 89.1455ZM281.597 82.5146C282.116 82.5146 282.62 82.6377 283.107 82.8838C283.595 83.1253 283.966 83.4398 284.222 83.8271C284.468 84.1963 284.632 84.627 284.714 85.1191C284.787 85.4564 284.823 85.9941 284.823 86.7324H279.457C279.48 87.4753 279.655 88.0723 279.983 88.5234C280.311 88.9701 280.82 89.1934 281.508 89.1934C282.15 89.1934 282.663 88.9814 283.046 88.5576C283.265 88.3115 283.42 88.0267 283.511 87.7031H284.721C284.689 87.972 284.582 88.2728 284.399 88.6055C284.222 88.9336 284.021 89.2025 283.798 89.4121C283.424 89.7767 282.962 90.0228 282.41 90.1504C282.114 90.2233 281.779 90.2598 281.405 90.2598C280.494 90.2598 279.721 89.9294 279.088 89.2686C278.454 88.6032 278.138 87.6735 278.138 86.4795C278.138 85.3037 278.457 84.349 279.095 83.6152C279.733 82.8815 280.567 82.5146 281.597 82.5146ZM283.559 85.7549C283.508 85.2217 283.392 84.7956 283.21 84.4766C282.873 83.8841 282.31 83.5879 281.521 83.5879C280.956 83.5879 280.482 83.793 280.1 84.2031C279.717 84.6087 279.514 85.126 279.491 85.7549H283.559ZM286.655 82.6787H287.824V83.9434C287.92 83.6973 288.154 83.3988 288.528 83.0479C288.902 82.6924 289.332 82.5146 289.82 82.5146C289.843 82.5146 289.882 82.5169 289.936 82.5215C289.991 82.526 290.084 82.5352 290.216 82.5488V83.8477C290.144 83.834 290.075 83.8249 290.011 83.8203C289.952 83.8158 289.886 83.8135 289.813 83.8135C289.193 83.8135 288.717 84.014 288.384 84.415C288.052 84.8115 287.885 85.2695 287.885 85.7891V90H286.655V82.6787Z" fill="white"/>
<path d="M166.407 101.698C167.351 101.698 168.166 101.881 168.854 102.245C169.853 102.769 170.463 103.688 170.687 105H169.34C169.176 104.266 168.836 103.733 168.321 103.4C167.806 103.063 167.157 102.895 166.373 102.895C165.443 102.895 164.66 103.243 164.021 103.94C163.388 104.638 163.071 105.677 163.071 107.058C163.071 108.252 163.333 109.225 163.857 109.977C164.382 110.724 165.236 111.098 166.421 111.098C167.328 111.098 168.077 110.836 168.67 110.312C169.267 109.783 169.572 108.931 169.586 107.755H166.441V106.627H170.851V112H169.976L169.647 110.708C169.187 111.214 168.779 111.565 168.424 111.761C167.827 112.098 167.068 112.267 166.147 112.267C164.958 112.267 163.935 111.882 163.078 111.111C162.144 110.145 161.677 108.819 161.677 107.133C161.677 105.451 162.132 104.114 163.044 103.12C163.91 102.172 165.031 101.698 166.407 101.698ZM175.984 111.207C176.8 111.207 177.358 110.899 177.659 110.284C177.964 109.664 178.117 108.976 178.117 108.22C178.117 107.536 178.008 106.98 177.789 106.552C177.442 105.877 176.845 105.54 175.998 105.54C175.246 105.54 174.699 105.827 174.357 106.401C174.015 106.976 173.844 107.668 173.844 108.479C173.844 109.259 174.015 109.908 174.357 110.428C174.699 110.947 175.241 111.207 175.984 111.207ZM176.032 104.467C176.975 104.467 177.773 104.781 178.425 105.41C179.076 106.039 179.402 106.964 179.402 108.186C179.402 109.366 179.115 110.341 178.541 111.111C177.967 111.882 177.076 112.267 175.868 112.267C174.861 112.267 174.061 111.927 173.468 111.248C172.876 110.564 172.58 109.648 172.58 108.5C172.58 107.27 172.892 106.29 173.516 105.561C174.141 104.831 174.979 104.467 176.032 104.467ZM181.152 104.679H182.321V105.718C182.667 105.289 183.034 104.982 183.421 104.795C183.809 104.608 184.239 104.515 184.713 104.515C185.752 104.515 186.454 104.877 186.819 105.602C187.019 105.998 187.12 106.565 187.12 107.304V112H185.869V107.386C185.869 106.939 185.803 106.579 185.67 106.306C185.452 105.85 185.055 105.622 184.481 105.622C184.189 105.622 183.95 105.652 183.763 105.711C183.426 105.811 183.13 106.012 182.874 106.312C182.669 106.554 182.535 106.805 182.471 107.064C182.412 107.32 182.382 107.687 182.382 108.165V112H181.152V104.679ZM189.225 104.713H190.476V112H189.225V104.713ZM189.225 101.958H190.476V103.353H189.225V101.958ZM192.622 104.679H193.791V105.718C194.137 105.289 194.504 104.982 194.891 104.795C195.279 104.608 195.71 104.515 196.183 104.515C197.223 104.515 197.924 104.877 198.289 105.602C198.489 105.998 198.59 106.565 198.59 107.304V112H197.339V107.386C197.339 106.939 197.273 106.579 197.141 106.306C196.922 105.85 196.525 105.622 195.951 105.622C195.659 105.622 195.42 105.652 195.233 105.711C194.896 105.811 194.6 106.012 194.345 106.312C194.14 106.554 194.005 106.805 193.941 107.064C193.882 107.32 193.852 107.687 193.852 108.165V112H192.622V104.679ZM209.376 101.698C210.32 101.698 211.135 101.881 211.824 102.245C212.822 102.769 213.432 103.688 213.656 105H212.309C212.145 104.266 211.805 103.733 211.29 103.4C210.775 103.063 210.126 102.895 209.342 102.895C208.412 102.895 207.629 103.243 206.991 103.94C206.357 104.638 206.04 105.677 206.04 107.058C206.04 108.252 206.302 109.225 206.826 109.977C207.351 110.724 208.205 111.098 209.39 111.098C210.297 111.098 211.047 110.836 211.639 110.312C212.236 109.783 212.541 108.931 212.555 107.755H209.41V106.627H213.82V112H212.945L212.617 110.708C212.156 111.214 211.748 111.565 211.393 111.761C210.796 112.098 210.037 112.267 209.117 112.267C207.927 112.267 206.904 111.882 206.047 111.111C205.113 110.145 204.646 108.819 204.646 107.133C204.646 105.451 205.102 104.114 206.013 103.12C206.879 102.172 208 101.698 209.376 101.698ZM218.953 111.207C219.769 111.207 220.327 110.899 220.628 110.284C220.933 109.664 221.086 108.976 221.086 108.22C221.086 107.536 220.977 106.98 220.758 106.552C220.411 105.877 219.814 105.54 218.967 105.54C218.215 105.54 217.668 105.827 217.326 106.401C216.984 106.976 216.814 107.668 216.814 108.479C216.814 109.259 216.984 109.908 217.326 110.428C217.668 110.947 218.21 111.207 218.953 111.207ZM219.001 104.467C219.944 104.467 220.742 104.781 221.394 105.41C222.045 106.039 222.371 106.964 222.371 108.186C222.371 109.366 222.084 110.341 221.51 111.111C220.936 111.882 220.045 112.267 218.837 112.267C217.83 112.267 217.03 111.927 216.438 111.248C215.845 110.564 215.549 109.648 215.549 108.5C215.549 107.27 215.861 106.29 216.485 105.561C217.11 104.831 217.948 104.467 219.001 104.467ZM224.155 104.679H225.324V105.943C225.42 105.697 225.654 105.399 226.028 105.048C226.402 104.692 226.832 104.515 227.32 104.515C227.343 104.515 227.382 104.517 227.436 104.521C227.491 104.526 227.584 104.535 227.717 104.549V105.848C227.644 105.834 227.575 105.825 227.511 105.82C227.452 105.816 227.386 105.813 227.313 105.813C226.693 105.813 226.217 106.014 225.885 106.415C225.552 106.812 225.386 107.27 225.386 107.789V112H224.155V104.679ZM230.006 110.052C230.006 110.407 230.136 110.688 230.396 110.893C230.656 111.098 230.963 111.2 231.319 111.2C231.752 111.2 232.171 111.1 232.577 110.899C233.26 110.567 233.602 110.022 233.602 109.266V108.274C233.452 108.37 233.258 108.45 233.021 108.514C232.784 108.577 232.552 108.623 232.324 108.65L231.579 108.746C231.132 108.805 230.797 108.899 230.574 109.026C230.195 109.241 230.006 109.582 230.006 110.052ZM232.987 107.563C233.269 107.527 233.458 107.409 233.554 107.208C233.609 107.099 233.636 106.941 233.636 106.736C233.636 106.317 233.486 106.014 233.185 105.827C232.889 105.636 232.463 105.54 231.907 105.54C231.264 105.54 230.808 105.713 230.54 106.06C230.389 106.251 230.291 106.536 230.246 106.914H229.097C229.12 106.012 229.412 105.385 229.972 105.034C230.537 104.679 231.191 104.501 231.934 104.501C232.795 104.501 233.495 104.665 234.033 104.993C234.566 105.321 234.832 105.832 234.832 106.524V110.742C234.832 110.87 234.858 110.972 234.908 111.05C234.962 111.127 235.074 111.166 235.243 111.166C235.297 111.166 235.359 111.164 235.427 111.159C235.496 111.15 235.568 111.139 235.646 111.125V112.034C235.455 112.089 235.309 112.123 235.208 112.137C235.108 112.15 234.971 112.157 234.798 112.157C234.374 112.157 234.067 112.007 233.875 111.706C233.775 111.547 233.705 111.321 233.664 111.029C233.413 111.357 233.053 111.642 232.583 111.884C232.114 112.125 231.597 112.246 231.032 112.246C230.353 112.246 229.797 112.041 229.364 111.631C228.935 111.216 228.721 110.699 228.721 110.079C228.721 109.4 228.933 108.874 229.357 108.5C229.781 108.126 230.337 107.896 231.025 107.81L232.987 107.563ZM237.396 113.429C237.71 113.374 237.931 113.153 238.059 112.766C238.127 112.561 238.161 112.362 238.161 112.171C238.161 112.139 238.159 112.109 238.154 112.082C238.154 112.059 238.15 112.032 238.141 112H237.396V110.51H238.859V111.891C238.859 112.433 238.749 112.909 238.53 113.319C238.312 113.729 237.933 113.982 237.396 114.078V113.429ZM245.653 101.958H246.979V106.853L251.874 101.958H253.754L249.577 106.005L253.87 112H252.099L248.586 106.962L246.979 108.5V112H245.653V101.958ZM256.05 110.052C256.05 110.407 256.18 110.688 256.44 110.893C256.7 111.098 257.007 111.2 257.363 111.2C257.796 111.2 258.215 111.1 258.62 110.899C259.304 110.567 259.646 110.022 259.646 109.266V108.274C259.495 108.37 259.302 108.45 259.065 108.514C258.828 108.577 258.595 108.623 258.368 108.65L257.622 108.746C257.176 108.805 256.841 108.899 256.618 109.026C256.239 109.241 256.05 109.582 256.05 110.052ZM259.031 107.563C259.313 107.527 259.502 107.409 259.598 107.208C259.653 107.099 259.68 106.941 259.68 106.736C259.68 106.317 259.53 106.014 259.229 105.827C258.933 105.636 258.507 105.54 257.951 105.54C257.308 105.54 256.852 105.713 256.583 106.06C256.433 106.251 256.335 106.536 256.289 106.914H255.141C255.164 106.012 255.455 105.385 256.016 105.034C256.581 104.679 257.235 104.501 257.978 104.501C258.839 104.501 259.539 104.665 260.077 104.993C260.61 105.321 260.876 105.832 260.876 106.524V110.742C260.876 110.87 260.901 110.972 260.952 111.05C261.006 111.127 261.118 111.166 261.286 111.166C261.341 111.166 261.403 111.164 261.471 111.159C261.539 111.15 261.612 111.139 261.69 111.125V112.034C261.498 112.089 261.353 112.123 261.252 112.137C261.152 112.15 261.015 112.157 260.842 112.157C260.418 112.157 260.111 112.007 259.919 111.706C259.819 111.547 259.748 111.321 259.707 111.029C259.457 111.357 259.097 111.642 258.627 111.884C258.158 112.125 257.641 112.246 257.076 112.246C256.397 112.246 255.841 112.041 255.408 111.631C254.979 111.216 254.765 110.699 254.765 110.079C254.765 109.4 254.977 108.874 255.401 108.5C255.825 108.126 256.381 107.896 257.069 107.81L259.031 107.563ZM263.959 108.425C263.959 109.209 264.125 109.865 264.458 110.394C264.791 110.922 265.324 111.187 266.058 111.187C266.627 111.187 267.094 110.943 267.459 110.455C267.828 109.963 268.013 109.259 268.013 108.343C268.013 107.418 267.824 106.734 267.445 106.292C267.067 105.845 266.6 105.622 266.044 105.622C265.424 105.622 264.921 105.859 264.533 106.333C264.15 106.807 263.959 107.504 263.959 108.425ZM265.812 104.549C266.372 104.549 266.842 104.667 267.22 104.904C267.439 105.041 267.687 105.28 267.965 105.622V101.924H269.148V112H268.04V110.981C267.753 111.433 267.413 111.758 267.022 111.959C266.63 112.16 266.181 112.26 265.675 112.26C264.859 112.26 264.153 111.918 263.556 111.234C262.959 110.546 262.66 109.632 262.66 108.493C262.66 107.427 262.931 106.504 263.474 105.725C264.021 104.941 264.8 104.549 265.812 104.549Z" fill="white"/>
<path d="M147 101C144.581 101 142.613 103.003 142.613 105.466C142.613 106.843 143.31 108.515 144.684 110.435C145.689 111.84 146.68 112.842 146.722 112.884C146.798 112.961 146.899 113 147 113C147.098 113 147.196 112.963 147.272 112.89C147.314 112.85 148.307 111.889 149.315 110.503C150.69 108.611 151.387 106.917 151.387 105.466C151.387 103.003 149.419 101 147 101ZM147 107.394C145.817 107.394 144.855 106.432 144.855 105.249C144.855 104.066 145.817 103.104 147 103.104C148.183 103.104 149.145 104.066 149.145 105.249C149.145 106.432 148.183 107.394 147 107.394Z" fill="white"/>
<circle cx="376.5" cy="22.5" r="6.5" fill="#435365"/>
<circle opacity="0.79" cx="50" cy="26" r="10" fill="#435365"/>
<circle opacity="0.79" cx="128" cy="41" r="5" fill="#2B314B" fill-opacity="0.46"/>
<circle opacity="0.79" cx="181" cy="60" r="5" fill="#2B314B" fill-opacity="0.46"/>
<circle opacity="0.79" cx="260" cy="31" r="5" fill="#2B314B" fill-opacity="0.46"/>
<rect width="942" height="418" fill="url(#paint0_linear_118_5)"/>
<path d="M869.268 126.453C867.775 125.382 865.748 125.448 864.328 126.615C847.156 140.729 821.713 139.745 805.688 123.721C789.686 107.718 788.658 82.2784 802.794 65.0792C803.961 63.6597 804.027 61.6327 802.956 60.14C801.884 58.6469 799.943 58.0614 798.225 58.7126C790.777 61.5346 784.127 65.8405 778.458 71.5099C756.536 93.431 756.493 128.99 778.457 150.954C800.376 172.874 835.935 172.918 857.898 150.954C863.567 145.285 867.872 138.634 870.695 131.185C871.346 129.466 870.761 127.525 869.268 126.453V126.453ZM852.164 145.219C833.515 163.87 803.079 164.108 784.192 145.219C765.601 126.629 765.248 96.1881 784.192 77.2448C785.575 75.862 787.026 74.5739 788.541 73.3833C784.438 83.5505 779.386 108.887 799.954 129.455C820.497 149.998 845.81 144.992 856.027 140.869C854.836 142.384 853.547 143.836 852.164 145.219V145.219Z" fill="white"/>
<path d="M808.209 89.0231C809.09 89.3167 813.736 90.44 817.696 94.3392C821.596 98.2996 822.719 102.946 823.012 103.827C823.563 105.484 825.113 106.603 826.86 106.603C828.607 106.603 830.158 105.484 830.708 103.827C831.002 102.946 832.125 98.2996 836.024 94.3392C839.984 90.4397 844.631 89.3167 845.511 89.0231C847.169 88.4725 848.288 86.9218 848.288 85.1749C848.288 83.4281 847.169 81.8774 845.511 81.3268C844.631 81.0332 839.984 79.9099 836.024 76.0107C832.125 72.0503 831.002 67.4038 830.708 66.5233C830.158 64.8656 828.607 63.7467 826.86 63.7467C825.113 63.7467 823.563 64.8656 823.012 66.5233C822.719 67.4038 821.595 72.0503 817.696 76.0107C813.736 79.9102 809.09 81.0332 808.209 81.3268C806.552 81.8774 805.433 83.4281 805.433 85.1749C805.433 86.9218 806.552 88.4725 808.209 89.0231V89.0231ZM826.86 77.5372C828.878 80.5552 831.48 83.1569 834.497 85.1749C831.479 87.1935 828.878 89.7944 826.86 92.8129C824.842 89.7949 822.241 87.1935 819.223 85.1752C822.241 83.1566 824.842 80.5558 826.86 77.5372V77.5372Z" fill="white"/>
<path d="M842.955 54.2764C843.835 54.57 848.482 55.6932 852.442 59.5925C856.341 63.5529 857.464 68.1994 857.758 69.0799C858.309 70.7376 859.859 71.8565 861.606 71.8565C863.353 71.8565 864.903 70.7376 865.454 69.0799C865.748 68.1994 866.871 63.5529 870.77 59.5925C874.73 55.693 879.377 54.57 880.257 54.2764C881.915 53.7258 883.034 52.1751 883.034 50.4282C883.034 48.6813 881.915 47.1307 880.257 46.58C879.377 46.2865 874.73 45.1632 870.77 41.2639C866.871 37.3036 865.747 32.6571 865.454 31.7766C864.903 30.1189 863.353 29 861.606 29C859.86 29 858.309 30.1189 857.758 31.7766C857.465 32.6571 856.342 37.3036 852.442 41.2639C848.482 45.1635 843.836 46.2865 842.955 46.58C841.298 47.1307 840.179 48.6813 840.179 50.4282C840.179 52.1751 841.297 53.7258 842.955 54.2764V54.2764ZM861.606 42.7902C863.625 45.8082 866.226 48.4099 869.244 50.428C866.225 52.4465 863.625 55.0474 861.606 58.066C859.588 55.048 856.987 52.4465 853.969 50.4282C856.987 48.4099 859.588 45.8088 861.606 42.7902V42.7902Z" fill="white"/>
<path d="M897.63 94.3571C896.749 94.0635 892.103 92.9403 888.143 89.041C884.243 85.0806 883.12 80.4341 882.827 79.5536C882.276 77.896 880.725 76.7771 878.979 76.7771C877.232 76.7771 875.681 77.896 875.131 79.5536C874.837 80.4341 873.714 85.0806 869.815 89.041C865.854 92.9405 861.208 94.0635 860.328 94.3571C858.67 94.9078 857.551 96.4584 857.551 98.2053C857.551 99.9522 858.67 101.503 860.328 102.053C861.208 102.347 865.854 103.47 869.815 107.37C873.714 111.33 874.837 115.976 875.131 116.857C875.681 118.515 877.232 119.634 878.979 119.634C880.725 119.634 882.276 118.515 882.827 116.857C883.12 115.976 884.243 111.33 888.143 107.37C892.103 103.47 896.749 102.347 897.63 102.053C899.287 101.503 900.406 99.9522 900.406 98.2053C900.406 96.4584 899.287 94.9078 897.63 94.3571V94.3571ZM878.978 105.843C876.96 102.825 874.359 100.224 871.341 98.2053C874.36 96.1867 876.96 93.5858 878.979 90.5673C880.997 93.5853 883.598 96.187 886.616 98.205C883.597 100.224 880.997 102.824 878.978 105.843V105.843Z" fill="white"/>
<defs>
<linearGradient id="paint0_linear_118_5" x1="0" y1="209" x2="942" y2="209" gradientUnits="userSpaceOnUse">
<stop stop-color="#536976"/>
<stop offset="1" stop-color="#292E49"/>
</linearGradient>
</defs>
</svg>
