<svg width="12" height="12" viewBox="0 0 12 12" fill="none" xmlns="http://www.w3.org/2000/svg">
<path d="M6 0C3.58093 0 1.6129 2.00339 1.6129 4.46591C1.6129 5.84333 2.30956 7.5152 3.68359 9.43507C4.68911 10.8401 5.67996 11.8421 5.72165 11.8841C5.79829 11.9613 5.89912 12 6.00007 12C6.09808 12 6.19617 11.9635 6.2722 11.8902C6.31399 11.85 7.30734 10.8885 8.31476 9.50289C9.68989 7.61146 10.3871 5.91679 10.3871 4.46588C10.3871 2.00339 8.41901 0 6 0ZM6 6.3939C4.81733 6.3939 3.8552 5.43175 3.8552 4.24911C3.8552 3.06647 4.81736 2.10432 6 2.10432C7.18263 2.10432 8.14479 3.06647 8.14479 4.24911C8.14479 5.43175 7.18261 6.3939 6 6.3939Z" fill="white"/>
</svg>
